# xmcd
#
# Track frame offsets:
#	150
#	10967
#	26940
#	40207
#	54317
#	67172
#	81782
#	94585
#	105112
#	117097
#	129872
#
# Disc length: 1914 seconds
# Revision: 4
# Processed by: cddbd v1.5.2PL0 Copyright (c) Steve Scherf et al.
# Submitted via: dBpowerAMP V12.0
#
DISCID=8207780b
DTITLE=Don Williams - The Best Of Don Williams, Vol. II
DYEAR=1979
DGENRE=Country
TTITLE0=(Turn Out The Lights And) Love Me Tonight
TTITLE1='Till All The Rivers Run Dry
TTITLE2=Rake And Ramblin' Man
TTITLE3=I'm Just A Country Boy
TTITLE4=Some Broken Hearts Never Mend
TTITLE5=Tulsa Time
TTITLE6=She Never Knew Me
TTITLE7=Falling In Love
TTITLE8=I've Got A Winner In You
TTITLE9=You're My Best Friend
TTITLE10=Say It Again
EXTD=
EXTT0=
EXTT1=
EXTT2=
EXTT3=
EXTT4=
EXTT5=
EXTT6=
EXTT7=
EXTT8=
EXTT9=
EXTT10=
PLAYORDER=
